<mxfile host="app.diagrams.net" modified="2023-03-25T11:49:37.406Z" agent="Mozilla/5.0 (Macintosh; Intel Mac OS X 10_15_7) AppleWebKit/537.36 (KHTML, like Gecko) Chrome/111.0.0.0 Safari/537.36 Edg/111.0.1661.51" etag="wOiZ3mhcwEHkSYDDNhun" version="21.1.1" type="github">
  <diagram name="第 1 页" id="mfDMCQaa-sl-N5Xm-IUA">
    <mxGraphModel dx="525" dy="1123" grid="1" gridSize="10" guides="1" tooltips="1" connect="1" arrows="1" fold="1" page="1" pageScale="1" pageWidth="827" pageHeight="1169" math="0" shadow="0">
      <root>
        <mxCell id="0" />
        <mxCell id="1" parent="0" />
        <mxCell id="FYJQ74CHEYr3Noe4ONyP-1" value="" style="rounded=0;html=1;jettySize=auto;orthogonalLoop=1;fontSize=11;endArrow=block;endFill=0;endSize=8;strokeWidth=1;shadow=0;labelBackgroundColor=none;edgeStyle=orthogonalEdgeStyle;entryX=0.5;entryY=0;entryDx=0;entryDy=0;" edge="1" parent="1" source="FYJQ74CHEYr3Noe4ONyP-2" target="FYJQ74CHEYr3Noe4ONyP-18">
          <mxGeometry relative="1" as="geometry">
            <mxPoint x="120" y="170" as="targetPoint" />
          </mxGeometry>
        </mxCell>
        <mxCell id="FYJQ74CHEYr3Noe4ONyP-2" value="进入「ECO」列表" style="rounded=1;whiteSpace=wrap;html=1;fontSize=12;glass=0;strokeWidth=1;shadow=0;" vertex="1" parent="1">
          <mxGeometry x="60" y="80" width="120" height="40" as="geometry" />
        </mxCell>
        <mxCell id="FYJQ74CHEYr3Noe4ONyP-3" value="" style="rounded=0;html=1;jettySize=auto;orthogonalLoop=1;fontSize=11;endArrow=block;endFill=0;endSize=8;strokeWidth=1;shadow=0;labelBackgroundColor=none;edgeStyle=orthogonalEdgeStyle;exitX=0.5;exitY=1;exitDx=0;exitDy=0;entryX=0.5;entryY=0;entryDx=0;entryDy=0;" edge="1" parent="1" source="FYJQ74CHEYr3Noe4ONyP-18" target="FYJQ74CHEYr3Noe4ONyP-19">
          <mxGeometry y="20" relative="1" as="geometry">
            <mxPoint as="offset" />
            <mxPoint x="120" y="230" as="sourcePoint" />
            <mxPoint x="120.00000000000011" y="280" as="targetPoint" />
          </mxGeometry>
        </mxCell>
        <mxCell id="FYJQ74CHEYr3Noe4ONyP-5" style="edgeStyle=orthogonalEdgeStyle;rounded=0;orthogonalLoop=1;jettySize=auto;html=1;entryX=0.5;entryY=0;entryDx=0;entryDy=0;exitX=0.5;exitY=1;exitDx=0;exitDy=0;" edge="1" parent="1" source="FYJQ74CHEYr3Noe4ONyP-19" target="FYJQ74CHEYr3Noe4ONyP-11">
          <mxGeometry relative="1" as="geometry">
            <mxPoint x="120.00000000000011" y="340" as="sourcePoint" />
          </mxGeometry>
        </mxCell>
        <mxCell id="FYJQ74CHEYr3Noe4ONyP-23" value="" style="edgeStyle=orthogonalEdgeStyle;rounded=0;orthogonalLoop=1;jettySize=auto;html=1;" edge="1" parent="1" source="FYJQ74CHEYr3Noe4ONyP-6" target="FYJQ74CHEYr3Noe4ONyP-22">
          <mxGeometry relative="1" as="geometry" />
        </mxCell>
        <mxCell id="FYJQ74CHEYr3Noe4ONyP-6" value="提交" style="rounded=1;whiteSpace=wrap;html=1;fontSize=12;glass=0;strokeWidth=1;shadow=0;" vertex="1" parent="1">
          <mxGeometry x="370" y="390" width="120" height="40" as="geometry" />
        </mxCell>
        <mxCell id="FYJQ74CHEYr3Noe4ONyP-7" style="edgeStyle=orthogonalEdgeStyle;rounded=0;orthogonalLoop=1;jettySize=auto;html=1;entryX=1;entryY=0.5;entryDx=0;entryDy=0;exitX=1;exitY=0.5;exitDx=0;exitDy=0;" edge="1" parent="1" source="FYJQ74CHEYr3Noe4ONyP-11" target="FYJQ74CHEYr3Noe4ONyP-19">
          <mxGeometry relative="1" as="geometry">
            <mxPoint x="170.0000000000001" y="310" as="targetPoint" />
            <Array as="points">
              <mxPoint x="210" y="430" />
              <mxPoint x="210" y="300" />
            </Array>
          </mxGeometry>
        </mxCell>
        <mxCell id="FYJQ74CHEYr3Noe4ONyP-8" value="不通过" style="edgeLabel;html=1;align=center;verticalAlign=middle;resizable=0;points=[];" vertex="1" connectable="0" parent="FYJQ74CHEYr3Noe4ONyP-7">
          <mxGeometry relative="1" as="geometry">
            <mxPoint y="-18" as="offset" />
          </mxGeometry>
        </mxCell>
        <mxCell id="FYJQ74CHEYr3Noe4ONyP-11" value="检查完整性" style="rhombus;whiteSpace=wrap;html=1;shadow=0;fontFamily=Helvetica;fontSize=12;align=center;strokeWidth=1;spacing=6;spacingTop=-4;" vertex="1" parent="1">
          <mxGeometry x="70" y="400" width="100" height="60" as="geometry" />
        </mxCell>
        <mxCell id="FYJQ74CHEYr3Noe4ONyP-12" style="edgeStyle=orthogonalEdgeStyle;rounded=0;orthogonalLoop=1;jettySize=auto;html=1;entryX=1;entryY=0.5;entryDx=0;entryDy=0;exitX=0.5;exitY=0;exitDx=0;exitDy=0;" edge="1" parent="1" source="FYJQ74CHEYr3Noe4ONyP-20" target="FYJQ74CHEYr3Noe4ONyP-19">
          <mxGeometry relative="1" as="geometry">
            <mxPoint x="280" y="370.0000000000001" as="sourcePoint" />
            <mxPoint x="170.0000000000001" y="310" as="targetPoint" />
            <Array as="points" />
          </mxGeometry>
        </mxCell>
        <mxCell id="FYJQ74CHEYr3Noe4ONyP-13" style="edgeStyle=orthogonalEdgeStyle;rounded=0;orthogonalLoop=1;jettySize=auto;html=1;entryX=0.5;entryY=1;entryDx=0;entryDy=0;" edge="1" parent="1" source="FYJQ74CHEYr3Noe4ONyP-14" target="FYJQ74CHEYr3Noe4ONyP-20">
          <mxGeometry relative="1" as="geometry">
            <mxPoint x="280" y="430.0000000000001" as="targetPoint" />
            <Array as="points" />
          </mxGeometry>
        </mxCell>
        <mxCell id="FYJQ74CHEYr3Noe4ONyP-21" style="edgeStyle=orthogonalEdgeStyle;rounded=0;orthogonalLoop=1;jettySize=auto;html=1;exitX=0.5;exitY=0;exitDx=0;exitDy=0;" edge="1" parent="1" source="FYJQ74CHEYr3Noe4ONyP-14" target="FYJQ74CHEYr3Noe4ONyP-6">
          <mxGeometry relative="1" as="geometry" />
        </mxCell>
        <mxCell id="FYJQ74CHEYr3Noe4ONyP-14" value="ECO信息" style="rounded=1;whiteSpace=wrap;html=1;fontSize=12;glass=0;strokeWidth=1;shadow=0;" vertex="1" parent="1">
          <mxGeometry x="230" y="530" width="120" height="40" as="geometry" />
        </mxCell>
        <mxCell id="FYJQ74CHEYr3Noe4ONyP-15" style="edgeStyle=orthogonalEdgeStyle;rounded=0;orthogonalLoop=1;jettySize=auto;html=1;exitX=0.5;exitY=1;exitDx=0;exitDy=0;" edge="1" parent="1">
          <mxGeometry relative="1" as="geometry">
            <mxPoint x="120.00000000000011" y="340" as="sourcePoint" />
            <mxPoint x="120.00000000000011" y="340" as="targetPoint" />
          </mxGeometry>
        </mxCell>
        <mxCell id="FYJQ74CHEYr3Noe4ONyP-16" value="通过" style="edgeStyle=orthogonalEdgeStyle;rounded=0;orthogonalLoop=1;jettySize=auto;html=1;entryX=0;entryY=0.5;entryDx=0;entryDy=0;exitX=0.5;exitY=1;exitDx=0;exitDy=0;" edge="1" parent="1" source="FYJQ74CHEYr3Noe4ONyP-11" target="FYJQ74CHEYr3Noe4ONyP-14">
          <mxGeometry x="-0.5" relative="1" as="geometry">
            <mxPoint x="120" y="460" as="sourcePoint" />
            <mxPoint x="120" y="520" as="targetPoint" />
            <mxPoint y="-1" as="offset" />
          </mxGeometry>
        </mxCell>
        <mxCell id="FYJQ74CHEYr3Noe4ONyP-18" value="新建ECO" style="rounded=1;whiteSpace=wrap;html=1;fontSize=12;glass=0;strokeWidth=1;shadow=0;" vertex="1" parent="1">
          <mxGeometry x="60" y="180" width="120" height="40" as="geometry" />
        </mxCell>
        <mxCell id="FYJQ74CHEYr3Noe4ONyP-19" value="填写信息" style="rounded=1;whiteSpace=wrap;html=1;fontSize=12;glass=0;strokeWidth=1;shadow=0;" vertex="1" parent="1">
          <mxGeometry x="60" y="280" width="120" height="40" as="geometry" />
        </mxCell>
        <mxCell id="FYJQ74CHEYr3Noe4ONyP-20" value="修改" style="rounded=1;whiteSpace=wrap;html=1;fontSize=12;glass=0;strokeWidth=1;shadow=0;" vertex="1" parent="1">
          <mxGeometry x="230" y="390" width="120" height="40" as="geometry" />
        </mxCell>
        <mxCell id="FYJQ74CHEYr3Noe4ONyP-22" value="推送至Capital" style="whiteSpace=wrap;html=1;rounded=1;glass=0;strokeWidth=1;shadow=0;" vertex="1" parent="1">
          <mxGeometry x="370" y="270" width="120" height="50" as="geometry" />
        </mxCell>
      </root>
    </mxGraphModel>
  </diagram>
</mxfile>
